<svg xmlns="http://www.w3.org/2000/svg" viewBox="0 0 96 96">
  <g transform="translate(48,48)">
    <!-- Outer gear body with teeth -->
    <path d="M-4,-36 L4,-36 L4,-32 L8,-32 L8,-28 L4,-28 L4,-24 
             L32,-24 L32,-4 L36,-4 L36,4 L32,4 L32,8 L28,8 L28,4 L24,4 
             L24,32 L4,32 L4,36 L-4,36 L-4,32 L-8,32 L-8,28 L-4,28 L-4,24
             L-32,24 L-32,4 L-36,4 L-36,-4 L-32,-4 L-32,-8 L-28,-8 L-28,-4 L-24,-4
             L-24,-32 L-4,-32 Z" 
          fill="#0ea5a7"/>
    
    <!-- More teeth around the perimeter -->
    <g fill="#0ea5a7">
      <!-- Diagonal teeth -->
      <rect x="20" y="-26" width="6" height="4" rx="1" transform="rotate(45)"/>
      <rect x="26" y="20" width="6" height="4" rx="1" transform="rotate(135)"/>
      <rect x="-20" y="26" width="6" height="4" rx="1" transform="rotate(225)"/>
      <rect x="-26" y="-20" width="6" height="4" rx="1" transform="rotate(315)"/>
    </g>
    
    <!-- Inner ring -->
    <circle r="20" fill="#ffffff"/>
    
    <!-- Center hub -->
    <circle r="8" fill="#0ea5a7"/>
    
    <!-- Hub holes -->
    <g fill="#ffffff">
      <circle r="2"/>
      <circle cx="0" cy="-4" r="1"/>
      <circle cx="3.5" cy="2" r="1"/>
      <circle cx="-3.5" cy="2" r="1"/>
    </g>
  </g>
</svg>
